<svg width="115" height="115" viewBox="0 0 115 115" fill="none" xmlns="http://www.w3.org/2000/svg">
  <!-- Blue background shape -->
  <path d="M111.776 48.2736L81.1879 4.16627C79.3925 1.55085 76.4175 0 73.2591 0H9.65867C4.33788 0 0 4.35027 0 9.68626V105.287C0 110.623 4.33788 114.973 9.65867 114.973H73.2329C76.3913 114.973 79.3531 113.423 81.1617 110.82L111.763 66.6998C115.59 61.1798 115.59 53.7804 111.763 48.2604" fill="#27549D"/>
  
  <!-- Yellow accent bars -->
  <path d="M15.7393 19.8714C15.7393 17.6503 17.5347 15.8497 19.7495 15.8497H29.9848C31.0857 15.8497 31.9899 16.7566 31.9899 17.8606V31.9365C31.9899 33.0405 31.0857 33.9474 29.9848 33.9474H19.7495C17.5347 33.9474 15.7393 32.1468 15.7393 29.9257V19.8714Z" fill="#F1FF24"/>
  <path d="M15.7393 43.4112C15.7393 41.1901 17.5347 39.3895 19.7495 39.3895H29.9848C31.0857 39.3895 31.9899 40.2964 31.9899 41.4003V55.4763C31.9899 56.5934 31.0857 57.4872 29.9848 57.4872H19.7495C17.5347 57.4872 15.7393 55.6866 15.7393 53.4655V43.4112Z" fill="#F1FF24"/>
  <path d="M55.4617 97.1119C55.4617 98.2159 54.5574 99.1227 53.4566 99.1227H19.7495C17.5347 99.1227 15.7393 97.3222 15.7393 95.101V88.661C15.7393 86.4399 17.5347 84.6393 19.7495 84.6393H53.4435C54.5574 84.6393 55.4486 85.5462 55.4486 86.6502V97.1119H55.4617Z" fill="#F1FF24"/>
  <path d="M55.4617 77.2011C55.4617 78.3051 54.5574 79.212 53.4566 79.212H19.7495C17.5347 79.212 15.7393 77.4114 15.7393 75.1903V66.9497C15.7393 64.7286 17.5347 62.928 19.7495 62.928H53.4435C54.5574 62.928 55.4486 63.8349 55.4486 64.9389V77.2143L55.4617 77.2011Z" fill="#F1FF24"/>
  <path d="M94.8157 64.3861L71.9075 97.4009C71.1604 98.4786 69.9285 99.1226 68.618 99.1226H62.8778C61.777 99.1226 60.8727 98.2158 60.8727 97.1118V41.3993C60.8727 40.2822 59.9684 39.3885 58.8676 39.3885H57.4653C56.3514 39.3885 55.4602 40.2953 55.4602 41.3993V53.4645C55.4602 55.6856 53.6647 57.4862 51.4499 57.4862H41.4243C39.2095 57.4862 37.4141 55.6856 37.4141 53.4645V17.8606C37.4141 16.7434 38.3183 15.8497 39.4192 15.8497H68.6311C69.9416 15.8497 71.1736 16.4937 71.9206 17.5714L94.8157 50.5862C97.6858 54.7262 97.6858 60.2199 94.8157 64.373" fill="#F1FF24"/>
</svg>
